<svg width="14" height="15" viewBox="0 0 14 15" fill="none" xmlns="http://www.w3.org/2000/svg">
<path d="M4.47594 4.74097H4.48376C4.58792 4.8243 4.6999 4.88419 4.81969 4.92065C4.94469 4.95711 5.06188 4.97534 5.17126 4.97534C5.28584 4.97534 5.40563 4.97274 5.53063 4.96753C5.64521 4.96232 5.7598 4.95451 5.87438 4.94409C5.98896 4.92847 6.10876 4.91024 6.23376 4.8894C6.36396 4.86336 6.47334 4.84253 6.56188 4.8269C6.65042 4.80607 6.77021 4.77482 6.92126 4.73315C7.0723 4.69149 7.17646 4.66284 7.23376 4.64722C7.29626 4.63159 7.41605 4.59774 7.59313 4.54565C7.77021 4.49357 7.87959 4.46232 7.92126 4.4519C8.89001 4.17065 9.62959 4.00919 10.14 3.96753C11.2546 3.87899 12.1869 4.17847 12.9369 4.86597C13.6869 5.55347 14.0437 6.4519 14.0072 7.56128C13.9655 8.7644 13.6608 9.82951 13.0931 10.7566C12.5254 11.6837 11.7181 12.4571 10.6713 13.0769C9.96813 13.4988 9.28323 13.6498 8.61657 13.53C7.95511 13.405 7.36917 13.0118 6.85876 12.3503C6.65563 12.0847 6.46292 11.8998 6.28063 11.7957C6.09834 11.6863 5.92646 11.655 5.76501 11.7019C5.60876 11.7488 5.46553 11.8373 5.33532 11.9675C5.20511 12.0925 5.06709 12.267 4.92126 12.491C4.60876 12.9805 4.40563 13.2826 4.31188 13.3972C3.70251 14.1628 2.94469 14.3477 2.03844 13.9519C1.65303 13.7852 1.30407 13.53 0.991567 13.1863C0.684276 12.8425 0.449901 12.4649 0.288442 12.0535C0.132192 11.642 0.0384425 11.2097 0.00719246 10.7566C-0.0240575 10.2983 0.0488591 9.87378 0.225942 9.48315C0.595734 8.59774 1.2624 8.09253 2.22594 7.96753C2.79365 7.89461 3.45511 7.94409 4.21032 8.11597C5.14261 8.32951 5.79626 8.46753 6.17126 8.53003C6.89521 8.64982 7.49157 8.60295 7.96032 8.3894C8.2624 8.24878 8.4473 8.06128 8.51501 7.8269C8.58792 7.59253 8.53584 7.33211 8.35876 7.04565C8.04626 6.53524 7.5749 6.23576 6.94469 6.14722C6.31448 6.06388 5.6374 6.18367 4.91344 6.50659C4.85094 6.53263 4.73896 6.58472 4.57751 6.66284C4.41605 6.73576 4.29105 6.79044 4.20251 6.8269C4.11917 6.86336 4.0098 6.91024 3.87438 6.96753C3.74417 7.01961 3.61917 7.06649 3.49938 7.10815C3.37959 7.14461 3.2598 7.17586 3.14 7.2019C2.34834 7.39461 1.60094 7.23836 0.897817 6.73315C0.486359 6.43628 0.212922 6.06388 0.077505 5.61597C-0.0527034 5.16284 -0.0188492 4.7019 0.179067 4.23315C0.694692 3.04044 1.62959 2.36597 2.98375 2.20972C3.43688 2.15242 3.95251 2.17326 4.53063 2.27222C4.96292 2.33992 5.31709 2.30607 5.59313 2.17065C5.86917 2.03524 6.11917 1.77482 6.34313 1.3894C6.37438 1.33732 6.41605 1.25659 6.46813 1.14722C6.52021 1.03784 6.56188 0.957111 6.59313 0.905028C7.02542 0.155028 7.59834 -0.128826 8.31188 0.0534654C8.67646 0.147215 8.97594 0.339924 9.21032 0.63159C9.44469 0.918049 9.5723 1.25399 9.59313 1.6394C9.62959 2.18107 9.46553 2.68888 9.10094 3.16284C8.49157 3.94409 7.71032 4.35294 6.75719 4.3894H5.29626C5.10876 4.3894 4.9499 4.41284 4.81969 4.45972C4.69469 4.50138 4.58011 4.59513 4.47594 4.74097Z" fill="white"/>
</svg>
