<svg width="345" height="525" viewBox="0 0 345 525" fill="none" xmlns="http://www.w3.org/2000/svg">
<g clip-path="url(#clip0_1551_193)">
<rect width="345" height="525" fill="#10140F"/>
<path d="M46.2331 33.4219H46.3714C48.2153 34.9585 50.1976 36.063 52.3181 36.7353C54.5309 37.4076 56.6053 37.7437 58.5415 37.7437C60.5698 37.7437 62.6904 37.6957 64.9031 37.5996C66.9315 37.5036 68.9598 37.3595 70.9882 37.1675C73.0165 36.8793 75.1371 36.5432 77.3498 36.159C79.6548 35.6788 81.5909 35.2947 83.1583 35.0066C84.7257 34.6224 86.8462 34.0462 89.52 33.2778C92.1937 32.5095 94.0377 31.9813 95.0518 31.6932C96.1582 31.4051 98.2788 30.7808 101.413 29.8204C104.548 28.86 106.484 28.2838 107.222 28.0917C124.371 22.9055 137.463 19.9283 146.498 19.16C166.229 17.5273 182.732 23.0496 196.008 35.7269C209.285 48.4041 215.601 64.971 214.955 85.4276C214.218 107.613 208.824 127.253 198.774 144.348C188.725 161.443 174.434 175.705 155.902 187.134C143.456 194.913 131.332 197.698 119.53 195.489C107.821 193.184 97.449 185.933 88.4136 173.736C84.8179 168.838 81.4066 165.429 78.1796 163.508C74.9527 161.491 71.9102 160.915 69.052 161.779C66.2861 162.644 63.7507 164.276 61.4457 166.677C59.1408 168.982 56.6975 172.2 54.116 176.329C48.5841 185.357 44.9884 190.928 43.3288 193.04C32.5417 207.158 19.1269 210.568 3.08448 203.269C-3.73816 200.195 -9.91542 195.489 -15.4473 189.151C-20.887 182.812 -25.0359 175.849 -27.894 168.262C-30.6599 160.675 -32.3195 152.704 -32.8727 144.348C-33.4259 135.897 -32.1351 128.069 -29.0004 120.866C-22.4543 104.54 -10.653 95.2236 6.4036 92.9187C16.4532 91.5741 28.1623 92.4865 41.531 95.6558C58.0344 99.5935 69.6052 102.139 76.2435 103.291C89.059 105.5 99.6156 104.636 107.913 100.698C113.261 98.1048 116.534 94.6474 117.733 90.3256C119.023 86.0038 118.101 81.2018 114.967 75.9196C109.435 66.5077 101.091 60.9854 89.9349 59.3527C78.7789 57.8161 66.7932 60.025 53.9777 65.9795C52.8713 66.4597 50.8891 67.4201 48.0309 68.8607C45.1728 70.2052 42.9601 71.2136 41.3927 71.8859C39.9175 72.5582 37.9814 73.4226 35.5842 74.479C33.2793 75.4394 31.0665 76.3038 28.946 77.0721C26.8254 77.7444 24.7049 78.3206 22.5843 78.8008C8.57025 82.3543 -4.66014 79.4731 -17.1068 70.1572C-24.3905 64.6829 -29.2309 57.8161 -31.628 49.5566C-33.933 41.2011 -33.3337 32.7016 -29.8302 24.058C-20.7026 2.06483 -4.15305 -10.3724 19.8184 -13.2536C27.8396 -14.31 36.9672 -13.9258 47.2012 -12.1011C54.8536 -10.8526 61.123 -11.4768 66.0095 -13.9739C70.896 -16.4709 75.3215 -21.2729 79.286 -28.3799C79.8392 -29.3403 80.5768 -30.8289 81.4988 -32.8457C82.4207 -34.8626 83.1583 -36.3512 83.7115 -37.3116C91.3639 -51.1413 101.506 -56.3755 114.137 -53.0141C120.591 -51.2854 125.892 -47.7319 130.041 -42.3537C134.19 -37.0715 136.449 -30.8769 136.817 -23.7699C137.463 -13.7818 134.559 -4.41787 128.105 4.32177C117.318 18.7278 103.488 26.2669 86.6157 26.9392C84.0342 27.0352 81.3144 27.0833 78.4562 27.0833C75.5981 27.0833 72.4173 27.0833 68.9137 27.0833C65.4102 26.9872 62.6904 26.9392 60.7542 26.9392C57.4351 26.9392 54.6231 27.3714 52.3181 28.2357C50.1054 29.0041 48.077 30.7328 46.2331 33.4219Z" fill="#1B211A"/>
<path d="M116.348 59.2436C126.009 58.2896 135.61 60.1379 145.151 64.7887C157.197 70.7511 164.294 79.6352 166.441 91.4409C167.872 99.3114 168.826 104.081 169.303 105.751C171.688 114.218 174.491 119.047 177.711 120.24C181.051 121.313 186.418 119.107 193.812 113.621C195.244 112.548 197.271 110.998 199.895 108.971C202.519 106.824 204.666 105.155 206.336 103.962C208.125 102.65 210.212 101.219 212.597 99.6691C214.982 98.1189 217.308 96.8071 219.574 95.7339C231.143 90.2484 241.221 89.4733 249.809 93.4085C258.515 97.2245 264.478 105.274 267.699 117.557C272.946 138.306 270.323 158.519 259.827 178.195C251.478 193.816 238.657 199.123 221.363 194.115C218.262 193.161 209.794 190.06 195.959 184.813C182.482 179.685 171.748 176.883 163.757 176.406C151.711 175.452 141.394 178.672 132.807 186.065C129.348 189.046 128.215 192.028 129.408 195.009C130.362 197.394 132.628 198.706 136.206 198.944C138.711 199.183 142.17 199.302 146.583 199.302C151.115 199.183 154.633 199.183 157.138 199.302C167.275 199.779 174.968 202.522 180.216 207.53C184.629 211.823 186.537 216.056 185.941 220.23C185.464 224.285 182.542 227.862 177.175 230.963C175.743 231.797 173.656 232.811 170.913 234.003C168.17 235.077 166.441 235.792 165.725 236.15C158.807 239.37 153.858 243.066 150.876 247.24C144.794 255.588 143.839 262.623 148.014 268.347C149.803 270.852 151.95 272.402 154.454 272.998C157.078 273.475 159.344 273.415 161.252 272.819C163.28 272.104 165.725 271.03 168.587 269.599C174.909 266.38 182.422 260.298 191.129 251.354C201.028 241.218 210.152 233.705 218.501 228.816C229.593 222.377 240.208 219.872 250.345 221.303C258.813 222.496 265.075 225.835 269.13 231.32C273.304 236.806 274.795 243.782 273.602 252.249C273.245 254.991 272.529 257.615 271.456 260.119C270.859 261.789 269.19 266.26 266.446 273.535C263.703 280.69 261.855 285.519 260.9 288.023C259.946 290.408 258.277 294.642 255.891 300.724C253.506 306.686 251.478 311.396 249.809 314.855C248.258 318.313 246.29 322.487 243.905 327.376C241.639 332.146 239.373 336.558 237.107 340.612C229.235 354.684 221.125 363.449 212.776 366.907C204.547 370.246 192.56 369.59 176.817 364.939C147.477 356.234 115.394 350.272 80.568 347.052C60.2926 345.144 43.3566 341.447 29.7601 335.962C1.49371 324.514 -12.7588 305.136 -12.9973 277.828C-13.1166 263.041 -9.3 249.864 -1.54761 238.296C6.08551 226.61 16.7003 218.084 30.2968 212.717C33.3978 211.525 37.9895 210.034 44.0722 208.246C50.1548 206.457 53.554 205.443 54.2696 205.205C61.6641 202.701 62.9164 198.586 58.0265 192.862C56.7145 191.193 54.6274 188.868 51.7649 185.886C49.0218 182.786 46.9942 180.401 45.6823 178.731C32.8014 162.871 27.0766 146.236 28.5078 128.826C29.939 111.415 38.3474 95.8531 53.7329 82.1395C70.7881 66.8755 91.6599 59.2436 116.348 59.2436Z" fill="#628141"/>
<path d="M67.0011 379.331C66.9043 361.256 73.0992 342.891 85.5857 324.237C87.5216 321.337 90.5707 317.181 94.7328 311.768C98.895 306.355 101.896 302.344 103.735 299.735C107.413 294.322 109.204 290.021 109.107 286.831C109.01 283.545 106.929 279.292 102.864 274.072C101.799 272.719 100.105 270.786 97.7819 268.273C95.4588 265.76 93.8133 263.827 92.8453 262.474C88.3928 256.674 86.6505 251.262 87.6184 246.236C88.5864 241.113 92.2162 236.667 98.5078 232.897C102.38 230.577 106.832 229.031 111.866 228.258C116.996 227.484 121.061 227.194 124.062 227.388C127.159 227.581 131.854 228.016 138.145 228.693C142.211 229.176 148.212 230.674 156.149 233.187C159.15 234.154 162.199 234.782 165.296 235.072C168.491 235.265 171.685 235.12 174.879 234.637C178.073 234.154 180.977 233.574 183.591 232.897C186.204 232.221 189.205 231.351 192.592 230.287C196.948 228.934 203.337 226.663 211.758 223.473C220.179 220.284 226.567 218.012 230.923 216.659C247.669 211.44 263.785 213.904 279.272 224.053C293.985 233.622 300.712 246.477 299.454 262.619C298.196 279.533 289.291 291.567 272.739 298.72C270.899 299.493 268.915 300.218 266.786 300.894C264.656 301.474 262.188 302.151 259.381 302.924C256.574 303.601 254.541 304.132 253.283 304.519C249.217 305.582 246.701 306.742 245.733 307.999C245.055 308.869 244.668 309.883 244.571 311.043C244.184 314.33 246.168 317.568 250.524 320.757C254.783 323.947 259.768 325.783 265.479 326.267C271.287 326.75 276.61 326.315 281.45 324.962C283.483 324.575 286.29 323.705 289.871 322.352C293.453 320.999 295.969 320.129 297.421 319.742C307.391 317.036 316.151 317.568 323.701 321.337C331.348 325.01 337.156 331.679 341.124 341.345C344.125 348.691 345.383 358.115 344.899 369.617C344.318 380.539 341.511 391.316 336.478 401.948C331.541 412.58 325.201 421.907 317.458 429.93C309.714 437.856 300.712 444.38 290.452 449.503C280.289 454.625 269.98 457.428 259.526 457.912C242.49 458.685 227.245 454.384 213.791 445.008C200.336 435.536 190.705 422.391 184.897 405.573C181.703 396.294 179.332 381.892 177.783 362.367C177.686 361.594 177.589 360.048 177.492 357.728C177.492 355.408 177.396 353.668 177.202 352.509C177.105 351.349 176.766 349.996 176.186 348.449C175.702 346.806 174.831 345.646 173.572 344.969C172.411 344.196 170.91 343.81 169.071 343.81C167.039 343.81 165.296 344.389 163.844 345.549C162.392 346.709 161.328 348.352 160.65 350.479C159.973 352.605 159.489 354.538 159.198 356.278C158.908 358.018 158.666 360.096 158.472 362.512C157.795 371.115 157.456 384.067 157.456 401.368C157.456 410.454 156.536 418.234 154.697 424.71C151.697 435.343 146.131 442.737 138 446.893C129.966 451.049 120.577 451.339 109.833 447.763C98.5078 443.993 88.7316 436.406 80.504 425C72.3732 413.498 67.8723 401.078 67.0011 387.74V379.331ZM174.443 306.694C177.831 306.694 180.541 305.486 182.574 303.069C184.607 300.556 185.672 297.221 185.768 293.065C185.865 288.039 184.365 283.69 181.267 280.017C178.17 276.344 174.54 274.556 170.378 274.652C166.99 274.749 164.183 276.054 161.957 278.567C159.827 281.08 158.714 284.27 158.617 288.136C158.521 292.872 160.118 297.173 163.409 301.039C166.7 304.809 170.378 306.694 174.443 306.694Z" fill="#8BAE66"/>
<path d="M303.548 555.995C286.025 556.178 271.331 550.979 259.466 540.4C247.692 529.82 241.167 516.14 239.889 499.358C239.798 497.99 239.615 493.384 239.341 485.541C239.159 477.697 238.657 471.724 237.835 467.619C237.561 466.16 237.288 465.066 237.014 464.336C236.74 463.607 236.192 462.831 235.371 462.011C234.641 461.19 233.683 460.734 232.496 460.642C229.393 460.278 226.792 461.828 224.693 465.294C221.498 470.31 219.308 477.333 218.121 486.362C217.848 488.277 217.437 491.241 216.889 495.254C216.433 499.267 215.977 502.824 215.52 505.925C215.064 509.026 214.516 511.944 213.877 514.68C210.683 528.908 203.655 539.716 192.794 547.103C181.934 554.491 169.658 556.862 155.968 554.217C142.916 551.663 132.603 544.732 125.028 533.423C117.361 522.022 114.578 509.391 116.677 495.528C119.78 474.551 129.683 456.173 146.385 440.395C156.059 431.275 163.817 424.8 169.658 420.969C183.987 411.666 192.156 398.624 194.163 381.843C196.08 365.7 202.788 353.616 214.288 345.59C225.788 337.473 240.756 334.508 259.192 336.697C289.402 340.254 309.846 355.804 320.524 383.348L323.81 392.377C329.56 415.086 342.337 435.425 362.142 453.392C372.821 463.059 378.708 473.137 379.803 483.626C380.898 494.023 377.43 505.241 369.398 517.28C353.791 541.084 331.841 553.989 303.548 555.995ZM247.282 411.666C247.282 411.21 247.236 410.253 247.145 408.793C247.053 407.334 246.962 406.331 246.871 405.784C246.78 405.145 246.643 404.188 246.46 402.911C246.369 401.543 246.186 400.54 245.913 399.901C245.73 399.172 245.456 398.305 245.091 397.302C244.726 396.299 244.315 395.523 243.859 394.976C243.403 394.429 242.809 393.927 242.079 393.471C241.44 392.924 240.71 392.514 239.889 392.24C238.429 391.875 237.151 391.921 236.056 392.377C234.96 392.742 234.002 393.517 233.181 394.703C232.359 395.797 231.629 396.937 230.99 398.123C230.443 399.217 229.804 400.631 229.074 402.364C228.435 404.005 227.887 405.237 227.431 406.057C226.244 408.246 225.149 410.663 224.145 413.308C221.955 418.415 222.411 422.292 225.514 424.936C228.435 427.581 232.45 427.992 237.561 426.168C244.589 423.614 247.829 418.78 247.282 411.666Z" fill="#EBD5AB"/>
<path d="M72.9794 253.097H73.0126C73.4543 253.45 73.9291 253.704 74.437 253.859C74.9671 254.013 75.464 254.091 75.9278 254.091C76.4137 254.091 76.9216 254.079 77.4517 254.057C77.9375 254.035 78.4234 254.002 78.9093 253.958C79.3951 253.892 79.9031 253.815 80.4331 253.726C80.9853 253.616 81.449 253.528 81.8245 253.461C82.1999 253.373 82.7079 253.24 83.3483 253.064C83.9888 252.887 84.4305 252.766 84.6734 252.7C84.9385 252.633 85.4464 252.49 86.1973 252.269C86.9482 252.048 87.412 251.916 87.5887 251.872C91.6965 250.679 94.8326 249.995 96.9969 249.818C101.723 249.443 105.676 250.713 108.857 253.627C112.037 256.541 113.55 260.35 113.395 265.052C113.218 270.152 111.926 274.667 109.519 278.597C107.112 282.527 103.689 285.806 99.2496 288.433C96.2681 290.221 93.3639 290.862 90.537 290.354C87.7322 289.824 85.2477 288.157 83.0833 285.353C82.222 284.227 81.4049 283.443 80.6319 283.002C79.8589 282.538 79.1301 282.406 78.4455 282.604C77.7829 282.803 77.1756 283.178 76.6235 283.73C76.0713 284.26 75.4861 285 74.8677 285.949C73.5426 288.025 72.6813 289.305 72.2838 289.791C69.6998 293.036 66.4864 293.82 62.6437 292.142C61.0094 291.436 59.5297 290.354 58.2046 288.897C56.9015 287.44 55.9077 285.839 55.2231 284.095C54.5605 282.351 54.163 280.518 54.0305 278.597C53.898 276.654 54.2072 274.855 54.9581 273.199C56.5261 269.446 59.353 267.304 63.4387 266.774C65.846 266.465 68.6508 266.675 71.8531 267.404C75.8063 268.309 78.578 268.894 80.1681 269.159C83.2379 269.667 85.7667 269.468 87.7543 268.563C89.0352 267.967 89.8193 267.172 90.1064 266.178C90.4156 265.185 90.1947 264.081 89.4438 262.867C88.1187 260.703 86.12 259.433 83.4477 259.058C80.7754 258.705 77.9044 259.213 74.8346 260.581C74.5696 260.692 74.0947 260.913 73.4101 261.244C72.7255 261.553 72.1954 261.785 71.82 261.939C71.4666 262.094 71.0028 262.293 70.4286 262.535C69.8765 262.756 69.3465 262.955 68.8385 263.132C68.3305 263.286 67.8226 263.419 67.3146 263.529C63.9577 264.346 60.7885 263.683 57.807 261.542C56.0623 260.283 54.9029 258.705 54.3286 256.806C53.7765 254.885 53.9201 252.931 54.7593 250.944C56.9457 245.888 60.91 243.029 66.6521 242.367C68.5735 242.124 70.7599 242.212 73.2113 242.632C75.0444 242.919 76.5462 242.775 77.7167 242.201C78.8872 241.627 79.9473 240.523 80.8969 238.89C81.0294 238.669 81.2061 238.327 81.427 237.863C81.6478 237.399 81.8245 237.057 81.957 236.836C83.79 233.657 86.2194 232.454 89.245 233.227C90.791 233.624 92.0609 234.441 93.0547 235.677C94.0485 236.892 94.5896 238.316 94.678 239.949C94.8326 242.246 94.1369 244.398 92.5909 246.407C90.007 249.719 86.6942 251.452 82.6527 251.607C82.0343 251.629 81.3828 251.64 80.6981 251.64C80.0135 251.64 79.2516 251.64 78.4123 251.64C77.5731 251.618 76.9216 251.607 76.4578 251.607C75.6628 251.607 74.9892 251.706 74.437 251.905C73.907 252.081 73.4211 252.479 72.9794 253.097Z" fill="white"/>
<path d="M136.22 234.32C138.009 234.143 139.787 234.485 141.553 235.346C143.784 236.45 145.098 238.095 145.496 240.281C145.761 241.738 145.937 242.621 146.026 242.93C146.467 244.498 146.986 245.392 147.583 245.612C148.201 245.811 149.195 245.403 150.564 244.387C150.829 244.188 151.205 243.901 151.69 243.526C152.176 243.129 152.574 242.82 152.883 242.599C153.214 242.356 153.601 242.091 154.042 241.804C154.484 241.517 154.915 241.274 155.334 241.075C157.477 240.06 159.343 239.916 160.933 240.645C162.545 241.351 163.649 242.842 164.246 245.116C165.217 248.957 164.732 252.7 162.788 256.342C161.242 259.235 158.868 260.217 155.666 259.29C155.091 259.113 153.523 258.539 150.962 257.568C148.466 256.618 146.478 256.1 144.999 256.011C142.746 255.835 140.825 256.431 139.234 257.8C138.594 258.352 138.384 258.904 138.605 259.455C138.782 259.897 139.212 260.14 139.897 260.184C140.361 260.228 141.001 260.25 141.818 260.25C142.658 260.228 143.309 260.228 143.773 260.25C145.628 260.339 147.042 260.846 148.013 261.774C148.83 262.569 149.195 263.352 149.106 264.125C149.018 264.876 148.477 265.538 147.483 266.112C147.218 266.267 146.832 266.454 146.324 266.675C145.816 266.874 145.496 267.006 145.363 267.072C144.082 267.669 143.166 268.353 142.613 269.126C141.487 270.671 141.31 271.974 142.083 273.034C142.415 273.497 142.812 273.784 143.276 273.895C143.762 273.983 144.182 273.972 144.535 273.862C144.91 273.729 145.363 273.53 145.893 273.265C147.064 272.669 148.455 271.543 150.067 269.887C151.9 268.011 153.59 266.62 155.136 265.715C157.19 264.522 159.155 264.059 161.032 264.324C162.6 264.545 163.76 265.163 164.511 266.178C165.284 267.194 165.56 268.485 165.339 270.053C165.273 270.561 165.14 271.047 164.941 271.51C164.831 271.819 164.522 272.647 164.014 273.994C163.506 275.319 163.164 276.213 162.987 276.676C162.81 277.118 162.501 277.902 162.059 279.028C161.618 280.132 161.242 281.004 160.933 281.644C160.646 282.284 160.281 283.057 159.84 283.962C159.42 284.845 159.001 285.662 158.581 286.413C157.123 289.018 155.622 290.641 154.076 291.281C152.552 291.899 150.332 291.778 147.417 290.917C141.984 289.305 136.043 288.201 129.594 287.605C125.84 287.252 122.704 286.567 120.186 285.552C114.952 283.432 112.313 279.845 112.269 274.789C112.247 272.051 112.942 269.611 114.356 267.47C115.791 265.306 117.768 263.728 120.286 262.734C120.86 262.513 121.71 262.237 122.836 261.906C123.963 261.575 124.592 261.387 124.725 261.343C126.094 260.88 126.326 260.118 125.42 259.058C125.177 258.749 124.791 258.318 124.261 257.767C123.753 257.192 123.377 256.751 123.134 256.442C120.749 253.505 119.689 250.426 119.954 247.202C120.219 243.979 121.776 241.098 124.625 238.559C127.783 235.733 131.648 234.32 136.22 234.32Z" fill="white"/>
<path d="M166.167 272.868C166.145 268.739 167.558 264.545 170.407 260.283C170.849 259.621 171.545 258.672 172.494 257.435C173.444 256.199 174.129 255.283 174.548 254.687C175.388 253.45 175.785 252.468 175.741 251.739C175.719 250.989 175.244 250.017 174.316 248.825C174.096 248.516 173.72 248.074 173.19 247.5C172.66 246.926 172.285 246.485 172.064 246.175C171.048 244.851 170.65 243.614 170.871 242.466C171.092 241.296 171.92 240.281 173.356 239.42C174.239 238.89 175.255 238.536 176.404 238.36C177.574 238.183 178.502 238.117 179.186 238.161C179.893 238.205 180.964 238.305 182.4 238.459C183.327 238.57 184.696 238.912 186.507 239.486C187.192 239.707 187.888 239.85 188.594 239.916C189.323 239.96 190.052 239.927 190.781 239.817C191.51 239.707 192.172 239.574 192.769 239.42C193.365 239.265 194.049 239.066 194.822 238.823C195.816 238.514 197.274 237.996 199.195 237.267C201.117 236.538 202.574 236.02 203.568 235.71C207.389 234.518 211.066 235.081 214.6 237.399C217.956 239.585 219.491 242.522 219.204 246.209C218.917 250.072 216.885 252.821 213.109 254.455C212.689 254.631 212.236 254.797 211.751 254.952C211.265 255.084 210.702 255.239 210.061 255.415C209.421 255.57 208.957 255.691 208.67 255.779C207.742 256.022 207.168 256.287 206.947 256.574C206.792 256.773 206.704 257.005 206.682 257.27C206.594 258.02 207.046 258.76 208.04 259.489C209.012 260.217 210.149 260.637 211.452 260.747C212.778 260.857 213.992 260.758 215.096 260.449C215.56 260.361 216.201 260.162 217.018 259.853C217.835 259.544 218.409 259.345 218.74 259.257C221.015 258.639 223.014 258.76 224.737 259.621C226.481 260.46 227.806 261.983 228.712 264.191C229.397 265.869 229.684 268.022 229.573 270.649C229.441 273.144 228.8 275.606 227.652 278.034C226.525 280.463 225.079 282.593 223.312 284.426C221.545 286.236 219.491 287.727 217.15 288.897C214.831 290.067 212.479 290.707 210.094 290.818C206.207 290.994 202.729 290.012 199.659 287.87C196.589 285.706 194.392 282.704 193.067 278.862C192.338 276.743 191.797 273.453 191.443 268.993C191.421 268.817 191.399 268.463 191.377 267.934C191.377 267.404 191.355 267.006 191.311 266.741C191.289 266.476 191.212 266.167 191.079 265.814C190.969 265.439 190.77 265.174 190.483 265.019C190.218 264.843 189.875 264.754 189.456 264.754C188.992 264.754 188.594 264.887 188.263 265.152C187.932 265.417 187.689 265.792 187.534 266.278C187.38 266.763 187.269 267.205 187.203 267.602C187.137 268 187.082 268.474 187.037 269.026C186.883 270.991 186.806 273.95 186.806 277.902C186.806 279.977 186.596 281.754 186.176 283.234C185.492 285.662 184.222 287.351 182.366 288.301C180.533 289.25 178.391 289.316 175.94 288.499C173.356 287.638 171.125 285.905 169.248 283.3C167.393 280.673 166.366 277.836 166.167 274.789V272.868ZM190.681 256.276C191.454 256.276 192.073 256 192.537 255.448C193 254.874 193.243 254.113 193.265 253.163C193.288 252.015 192.945 251.022 192.238 250.183C191.532 249.344 190.704 248.935 189.754 248.957C188.981 248.979 188.34 249.277 187.833 249.851C187.347 250.426 187.093 251.154 187.071 252.037C187.049 253.119 187.413 254.102 188.164 254.985C188.915 255.846 189.754 256.276 190.681 256.276Z" fill="white"/>
<path d="M273.5 289.592C269.26 289.636 265.704 288.378 262.833 285.817C259.984 283.256 258.405 279.944 258.096 275.882C258.074 275.55 258.03 274.436 257.963 272.537C257.919 270.638 257.798 269.192 257.599 268.198C257.533 267.845 257.467 267.58 257.4 267.404C257.334 267.227 257.202 267.039 257.003 266.841C256.826 266.642 256.594 266.532 256.307 266.509C255.556 266.421 254.927 266.796 254.419 267.635C253.646 268.85 253.116 270.55 252.829 272.736C252.762 273.199 252.663 273.917 252.531 274.888C252.42 275.86 252.31 276.721 252.199 277.471C252.089 278.222 251.956 278.928 251.802 279.591C251.029 283.035 249.328 285.651 246.7 287.44C244.072 289.228 241.102 289.802 237.789 289.162C234.631 288.543 232.135 286.866 230.302 284.128C228.447 281.368 227.773 278.31 228.281 274.954C229.032 269.876 231.428 265.428 235.47 261.608C237.811 259.4 239.688 257.833 241.102 256.905C244.569 254.653 246.546 251.496 247.031 247.434C247.495 243.526 249.118 240.601 251.901 238.658C254.684 236.693 258.306 235.975 262.767 236.505C270.077 237.366 275.024 241.131 277.608 247.798L278.403 249.984C279.794 255.481 282.886 260.405 287.679 264.754C290.263 267.095 291.687 269.534 291.952 272.073C292.217 274.59 291.378 277.306 289.435 280.22C285.658 285.982 280.347 289.106 273.5 289.592ZM259.885 254.653C259.885 254.543 259.874 254.311 259.852 253.958C259.83 253.605 259.808 253.362 259.785 253.229C259.763 253.075 259.73 252.843 259.686 252.534C259.664 252.203 259.62 251.96 259.554 251.805C259.509 251.629 259.443 251.419 259.355 251.176C259.266 250.933 259.167 250.746 259.057 250.613C258.946 250.481 258.803 250.359 258.626 250.249C258.471 250.116 258.295 250.017 258.096 249.951C257.743 249.863 257.433 249.874 257.168 249.984C256.903 250.072 256.671 250.26 256.473 250.547C256.274 250.812 256.097 251.088 255.943 251.375C255.81 251.64 255.656 251.982 255.479 252.402C255.324 252.799 255.192 253.097 255.081 253.296C254.794 253.826 254.529 254.411 254.286 255.051C253.756 256.287 253.867 257.226 254.618 257.866C255.324 258.506 256.296 258.605 257.533 258.164C259.233 257.546 260.017 256.376 259.885 254.653Z" fill="white"/>
</g>
<defs>
<clipPath id="clip0_1551_193">
<rect width="345" height="525" fill="white"/>
</clipPath>
</defs>
</svg>
