<svg width="100" height="100" viewBox="0 0 100 100" fill="none" xmlns="http://www.w3.org/2000/svg">
<g clip-path="url(#clip0_1562_191)">
<rect width="100" height="100" fill="#10140F"/>
<path d="M23.5899 55.2709L23.6115 55.3062C23.5268 56.0064 23.5687 56.6777 23.7374 57.3201C23.9205 57.9861 24.1636 58.5666 24.4667 59.0618C24.7843 59.5806 25.128 60.1158 25.4978 60.6675C25.8387 61.172 26.1913 61.6693 26.5556 62.1595C26.9432 62.6354 27.3569 63.1278 27.7967 63.6365C28.2743 64.1546 28.6708 64.5927 28.9862 64.9507C29.325 65.2944 29.797 65.751 30.4024 66.3206C31.0077 66.8901 31.4248 67.2831 31.6536 67.4996C31.8969 67.7397 32.3806 68.1892 33.1048 68.8481C33.829 69.5069 34.2722 69.9164 34.4344 70.0765C38.3798 73.6909 41.1531 76.5965 42.7546 78.7931C46.2405 83.5964 47.4825 88.6389 46.4803 93.9206C45.4782 99.2023 42.4409 103.282 37.3684 106.161C31.8614 109.273 26.244 110.815 20.516 110.788C14.788 110.761 9.08449 109.228 3.40548 106.188C-0.433856 104.162 -3.00899 101.476 -4.31993 98.1288C-5.5931 94.7912 -5.45494 91.0596 -3.90546 86.9341C-3.27811 85.2857 -2.98366 83.906 -3.02211 82.7949C-3.03722 81.6695 -3.37355 80.8057 -4.03112 80.2032C-4.67424 79.6244 -5.468 79.2189 -6.41239 78.9865C-7.33344 78.7399 -8.49787 78.5937 -9.90568 78.5478C-12.9658 78.4761 -14.8825 78.3852 -15.6558 78.275C-20.7757 77.6165 -23.7047 74.6927 -24.4426 69.5038C-24.764 67.3016 -24.5875 65.0215 -23.9132 62.6637C-23.2245 60.3294 -22.1819 58.2324 -20.7856 56.3726C-19.3748 54.5364 -17.6974 52.926 -15.7535 51.5415C-13.7862 50.1426 -11.6819 49.3083 -9.44058 49.0384C-4.44787 48.2836 -0.336138 49.916 2.89461 53.9355C4.79484 56.3058 6.40644 59.4363 7.72938 63.327C9.35642 68.1337 10.5496 71.4718 11.3089 73.341C12.7786 76.9474 14.6415 79.5188 16.8977 81.0552C18.3651 82.0371 19.7178 82.3599 20.9558 82.0234C22.2082 81.7106 23.2308 80.7604 24.0237 79.1728C25.4449 76.3577 25.4805 73.4021 24.1306 70.3059C22.7573 67.224 20.3438 64.4872 16.8902 62.0953C16.6003 61.8838 16.0565 61.5197 15.2589 61.003C14.4847 60.4721 13.8931 60.0561 13.4844 59.7553C13.09 59.478 12.5768 59.1114 11.9447 58.6555C11.3504 58.2089 10.7939 57.7715 10.2752 57.3435C9.7798 56.9011 9.30774 56.4445 8.85902 55.9736C5.80123 52.918 4.42992 49.1055 4.74509 44.5362C4.93505 41.8588 5.84598 39.5993 7.47789 37.7574C9.14757 35.9248 11.307 34.8136 13.9561 34.4237C20.7301 33.4862 26.3438 35.8686 30.7973 41.5709C32.3099 43.4653 33.6457 45.8569 34.8045 48.7458C35.6993 50.8888 36.8326 52.3994 38.2045 53.2777C39.5765 54.156 41.4364 54.5734 43.7843 54.5301C44.1043 54.5287 44.5815 54.4959 45.216 54.4316C45.8505 54.3674 46.3278 54.3345 46.6478 54.3331C51.2069 54.2328 54.0668 56.048 55.2276 59.7787C55.818 61.6865 55.7844 63.571 55.127 65.4323C54.4929 67.2793 53.3412 68.7786 51.6718 69.9303C49.3455 71.5813 46.6151 72.2316 43.4807 71.8812C38.2907 71.2655 34.2932 68.85 31.4881 64.6347L27.4389 58.0204C26.9192 57.1715 26.3739 56.5165 25.803 56.0556C25.2698 55.604 24.5321 55.3424 23.5899 55.2709Z" fill="#1B211A"/>
<path d="M-5.28112 26.108C-6.46508 20.1666 -6.29941 14.5932 -4.78409 9.38785C-3.04148 3.40165 0.286889 -1.3515 5.20102 -4.87161C10.1505 -8.36742 15.9323 -10.1069 22.5465 -10.09C26.4378 -10.0964 31.1749 -9.5346 36.7578 -8.40446C39.3236 -7.89033 41.2426 -7.53453 42.5145 -7.33704C47.6732 -6.4985 51.4538 -8.11673 53.8564 -12.1917C54.8678 -13.9172 55.9395 -15.315 57.0713 -16.3852C58.3551 -17.6372 59.6873 -18.2052 61.0678 -18.0892C62.4539 -17.9435 63.6804 -17.1526 64.7474 -15.7165C66.62 -13.2581 67.4645 -10.4262 67.281 -7.22073C67.0625 -3.70087 68.264 -0.103073 70.8853 3.57265C72.4806 5.86635 73.9493 8.06011 75.2916 10.1539C76.4541 11.942 77.1157 14.1146 77.2765 16.6718C77.457 19.8413 76.5376 22.3197 74.518 24.1072C72.4985 25.8946 69.9232 26.5062 66.792 25.942C65.1938 25.6504 63.6918 25.1257 62.286 24.3677C60.8802 23.6097 59.2525 22.5691 57.4031 21.2459C57.1202 21.0515 56.6021 20.6694 55.8487 20.0995C55.1251 19.5241 54.5512 19.0906 54.127 18.799C53.738 18.5317 53.2159 18.2119 52.5606 17.8396C51.9107 17.497 51.2745 17.229 50.652 17.0354C48.0314 16.2234 45.6773 16.6096 43.5895 18.194C41.5372 19.8027 40.5752 21.9657 40.7035 24.6828C40.8066 26.7578 41.5396 28.3938 42.9025 29.5908C44.2654 30.7878 45.9848 31.3189 48.0607 31.1839C48.5498 31.1557 49.2277 31.062 50.0943 30.9028C50.961 30.7436 51.4989 30.6448 51.7081 30.6064C54.694 30.2119 56.8672 30.6904 58.2275 32.0418C59.5934 33.423 60.0077 35.5949 59.4706 38.5574C58.1237 45.8566 53.9918 51.2809 47.075 54.8301C42.9526 56.9422 38.1548 57.9004 32.6818 57.7047C28.2033 57.5419 23.8122 56.5932 19.5084 54.8586C15.2047 53.1239 11.3717 50.8409 8.00949 48.0096C4.65278 45.208 1.79 41.8999 -0.57884 38.0854C-2.94768 34.2709 -4.51511 30.2784 -5.28112 26.108Z" fill="#628141"/>
<path d="M88.5704 111.999C83.6585 112.05 79.5397 110.585 76.2139 107.604C72.9137 104.622 71.0846 100.767 70.7264 96.0373C70.7008 95.6518 70.6497 94.3538 70.5729 92.1434C70.5217 89.9329 70.381 88.2494 70.1508 87.0928C70.0741 86.6815 69.9973 86.3731 69.9206 86.1675C69.8438 85.9618 69.6903 85.7434 69.4601 85.5121C69.2554 85.2807 68.9868 85.1522 68.6542 85.1265C67.7844 85.0237 67.0553 85.4606 66.4669 86.4373C65.5715 87.851 64.9575 89.8301 64.6249 92.3747C64.5482 92.9144 64.4331 93.7498 64.2796 94.8807C64.1516 96.0116 64.0237 97.014 63.8958 97.8879C63.7679 98.7618 63.6144 99.5843 63.4353 100.355C62.5399 104.365 60.5701 107.411 57.5257 109.493C54.4814 111.575 51.0405 112.243 47.2031 111.497C43.5448 110.778 40.6539 108.824 38.5305 105.637C36.3816 102.424 35.6013 98.8646 36.1897 94.9578C37.0595 89.0462 39.8353 83.8671 44.5169 79.4205C47.2287 76.8502 49.4032 75.0253 51.0405 73.9458C55.057 71.3242 57.3466 67.6487 57.9095 62.9194C58.4467 58.37 60.327 54.9644 63.5505 52.7025C66.7739 50.415 70.9694 49.5797 76.1372 50.1965C84.605 51.1989 90.3356 55.5812 93.3288 63.3435L94.2497 65.888C95.8614 72.288 99.443 78.0197 104.994 83.0831C107.988 85.8076 109.638 88.6478 109.945 91.6036C110.252 94.5337 109.28 97.6951 107.028 101.088C102.654 107.796 96.501 111.433 88.5704 111.999ZM72.7986 71.3242C72.7986 71.1956 72.7858 70.9258 72.7602 70.5145C72.7347 70.1033 72.7091 69.8205 72.6835 69.6663C72.6579 69.4864 72.6195 69.2165 72.5684 68.8567C72.5428 68.4712 72.4916 68.1884 72.4149 68.0085C72.3637 67.8029 72.287 67.5587 72.1846 67.276C72.0823 66.9932 71.9672 66.7748 71.8393 66.6206C71.7113 66.4663 71.5451 66.325 71.3404 66.1965C71.1613 66.0422 70.9567 65.9266 70.7264 65.8495C70.3171 65.7467 69.9589 65.7595 69.6519 65.888C69.3449 65.9908 69.0763 66.2093 68.8461 66.5434C68.6158 66.8519 68.4112 67.1732 68.2321 67.5073C68.0786 67.8157 67.8995 68.2141 67.6949 68.7025C67.5158 69.1651 67.3623 69.5121 67.2344 69.7434C66.9018 70.3603 66.5948 71.0414 66.3134 71.7868C65.6994 73.2262 65.8273 74.3185 66.6971 75.0639C67.5158 75.8093 68.6414 75.9249 70.0741 75.4109C72.0439 74.6912 72.9521 73.329 72.7986 71.3242Z" fill="#8BAE66"/>
<path d="M95.0687 25.6469C94.1499 26.06 93.3534 26.6257 92.6794 27.3438C92.0468 28.0567 91.6002 28.6508 91.3395 29.1263C91.1019 29.6198 90.78 30.3872 90.3739 31.4284C89.9679 32.4697 89.5852 33.6236 89.2259 34.8903C88.8896 36.175 88.6424 37.2273 88.484 38.0472C88.3257 38.8671 88.1089 40.0943 87.8336 41.7288C87.5583 43.3633 87.3687 44.4608 87.2647 45.0212C86.4105 49.6759 85.2899 53.1026 83.903 55.3013C82.6763 57.248 81.1312 58.8886 79.2675 60.2232C77.4452 61.5524 75.4836 62.4894 73.3827 63.034C71.2818 63.5787 69.1063 63.8385 66.8562 63.8133C64.6476 63.7828 62.4861 63.4306 60.372 62.7568C58.2395 62.1063 56.3178 61.1867 54.6068 59.9979C52.3287 58.4405 50.4178 56.6043 48.874 54.4893C47.3349 52.4157 46.2282 50.2653 45.5536 48.0381C44.8974 45.7875 44.6206 43.4563 44.723 41.0447C44.8486 38.651 45.3541 36.3662 46.2395 34.1901C47.1433 31.9906 48.4592 29.9062 50.1873 27.9369C51.9569 25.9622 54.0425 24.2729 56.4443 22.8689C59.6957 20.9975 63.8916 19.4881 69.0319 18.3408C69.2572 18.2907 69.8412 18.1627 70.7837 17.9569C71.7677 17.7457 72.4642 17.5927 72.8734 17.4978C73.3009 17.3795 73.8594 17.2127 74.5489 16.9975C75.2567 16.7589 75.8885 16.4985 76.4443 16.2164C78.2359 15.3539 79.0647 14.1529 78.9308 12.6133C78.7726 10.6771 77.8274 9.38953 76.0953 8.7505C74.3678 8.15295 72.1654 7.90073 69.4878 7.99387C65.1308 8.09338 62.2205 8.0798 60.7569 7.95313C56.1775 7.57641 53.3923 5.7163 52.4012 2.37279C51.2196 -1.53522 52.365 -5.11241 55.8373 -8.35878C59.6538 -11.902 64.1436 -13.5966 69.3066 -13.4425C74.4879 -13.3118 79.0058 -11.3597 82.8602 -7.58632C84.7942 -5.73206 86.2744 -4.08219 87.3006 -2.63672C90.0558 1.25753 94.5752 3.68277 100.859 4.63898C101.434 4.71198 102.946 4.89551 105.395 5.18957C107.862 5.46022 109.743 5.74347 111.037 6.03932C114.228 6.76355 117.046 8.08295 119.491 9.9975C121.959 11.9301 123.834 14.1917 125.117 16.7822C126.419 19.3493 127.1 22.1858 127.161 25.2917C127.263 28.3922 126.652 31.4061 125.327 34.3332C123.719 37.9069 121.122 40.7248 117.535 42.7867C113.967 44.8252 110.259 45.6404 106.411 45.2324C103.051 44.8666 100.399 43.6205 98.4546 41.494C96.5105 39.3675 95.4823 36.6179 95.3699 33.2452C95.3544 32.7422 95.4049 31.9888 95.5212 30.985C95.6375 29.9811 95.6781 29.0502 95.6431 28.1921C95.6081 27.334 95.4166 26.4856 95.0687 25.6469Z" fill="#EBD5AB"/>
<path d="M48.209 118.585C48.4252 117.865 48.4955 117.139 48.4198 116.407C48.3269 115.701 48.21 115.159 48.0692 114.779C47.9069 114.404 47.6312 113.847 47.2421 113.108C46.8531 112.37 46.389 111.59 45.8499 110.768C45.2893 109.95 44.8164 109.295 44.4311 108.805C44.0458 108.315 43.4592 107.592 42.6714 106.638C41.8836 105.683 41.357 105.039 41.0916 104.706C38.8825 101.948 37.4966 99.6398 36.934 97.7818C36.4353 96.1376 36.265 94.4632 36.4233 92.7588C36.5643 91.0803 36.9948 89.5151 37.7148 88.0631C38.4349 86.611 39.3522 85.2563 40.4667 83.9987C41.5641 82.7672 42.8198 81.7196 44.2341 80.8561C45.644 79.9707 47.1028 79.3359 48.6104 78.9517C50.6034 78.4276 52.5742 78.2472 54.5228 78.4103C56.4456 78.5558 58.2005 78.9828 59.7873 79.6913C61.3783 80.4216 62.8293 81.4054 64.1402 82.6426C65.4297 83.884 66.4719 85.2867 67.267 86.8506C68.0663 88.4362 68.5991 90.1983 68.8654 92.1366C69.1144 94.1009 69.0478 96.1041 68.6656 98.1461C68.1316 100.896 66.9315 104.002 65.0652 107.464C64.9833 107.616 64.77 108.008 64.4252 108.641C64.0632 109.299 63.8089 109.767 63.6623 110.045C63.52 110.344 63.341 110.74 63.1253 111.235C62.9138 111.751 62.7518 112.235 62.6392 112.687C62.2498 114.119 62.5222 115.174 63.4566 115.852C64.6267 116.709 65.8156 116.806 67.0233 116.141C68.2053 115.458 69.4247 114.338 70.6816 112.782C72.7562 110.274 74.1871 108.638 74.9743 107.874C77.4264 105.474 79.8382 104.812 82.2098 105.888C84.9932 107.132 86.4518 109.528 86.5858 113.075C86.7191 116.962 85.4797 120.324 82.8679 123.163C80.2602 126.023 76.9491 127.618 72.9347 127.948C70.9424 128.132 69.2875 128.161 67.9698 128.033C64.4247 127.684 60.8459 129.048 57.2332 132.127C56.9107 132.416 56.0676 133.179 54.7041 134.418C53.3448 135.677 52.2654 136.6 51.4656 137.186C49.4964 138.632 47.3737 139.578 45.0975 140.021C42.7999 140.469 40.6064 140.421 38.517 139.878C36.4318 139.358 34.4979 138.355 32.7153 136.87C30.9155 135.412 29.5135 133.593 28.5094 131.414C27.2789 128.759 26.9588 125.915 27.5492 122.882C28.1438 119.872 29.4971 117.38 31.6092 115.408C33.4588 113.691 35.459 112.804 37.6099 112.746C39.7607 112.689 41.8153 113.453 43.7737 115.039C44.0651 115.277 44.4656 115.674 44.9752 116.23C45.4848 116.787 45.9904 117.265 46.4918 117.665C46.9931 118.065 47.5656 118.372 48.209 118.585Z" fill="#EBD5AB"/>
<path d="M29.0124 59.2924C29.4147 55.4051 31.3671 52.2552 34.8698 49.8424C35.138 49.6581 35.4229 49.4822 35.7245 49.3146C36.0262 49.1303 36.2944 48.9795 36.529 48.8622C36.7636 48.745 37.0737 48.6025 37.4591 48.435C37.8446 48.2674 38.1211 48.1501 38.2887 48.0831C38.4731 47.9993 38.7915 47.8653 39.244 47.681C39.6965 47.4799 39.9898 47.3543 40.1238 47.304C41.0456 46.9354 41.6741 46.6673 42.0093 46.4998C42.6629 46.1647 43.1657 45.796 43.5176 45.3939C43.8863 44.9918 44.0623 44.4891 44.0455 43.8859C43.9952 42.5455 43.2495 41.6072 41.8082 41.0711C41.4562 40.937 41.0707 40.8281 40.6518 40.7443C40.2495 40.6438 39.7887 40.5517 39.2691 40.4679C38.7496 40.3841 38.3557 40.3087 38.0876 40.2417C37.7356 40.1747 37.4424 40.0993 37.2077 40.0155C36.9899 39.9317 36.7636 39.7893 36.529 39.5882C36.3111 39.3872 36.1603 39.1275 36.0765 38.8091C35.8083 37.8038 36.1268 36.9325 37.0318 36.1953C38.339 35.123 39.8557 34.5198 41.5819 34.3857C42.3696 34.3187 43.4925 34.2433 44.9505 34.1595C46.4086 34.0758 47.4225 34.0171 47.9923 33.9836C49.7856 33.8496 51.2604 33.1961 52.4168 32.0233C54.4447 29.9456 56.4558 29.4681 58.4501 30.5907C59.506 31.1939 60.2517 32.107 60.6875 33.3302C61.14 34.5365 61.2154 35.8351 60.9137 37.2257C60.7126 38.1138 60.1177 39.5463 59.1289 41.5235C58.6429 42.4785 58.4501 43.1655 58.5507 43.5843C58.6512 44.0032 59.154 44.531 60.059 45.1677C62.5561 46.9438 64.3578 48.435 65.4639 49.6414C67.7599 52.1546 69.2012 54.8774 69.7878 57.8095C70.3408 60.5741 69.8129 63.1796 68.204 65.6258C67.232 67.0835 65.9918 68.0805 64.4835 68.6166C62.9919 69.136 61.4081 69.1277 59.7322 68.5915C58.4585 68.1726 57.034 67.5527 55.4586 66.7317C52.0565 64.9389 48.6627 64.5535 45.2773 65.5756C42.0428 66.5306 39.3864 67.1673 37.3083 67.4857C34.7609 67.871 32.7079 67.3097 31.1493 65.8018C29.6074 64.2938 28.8951 62.124 29.0124 59.2924Z" fill="white"/>
</g>
<defs>
<clipPath id="clip0_1562_191">
<rect width="100" height="100" fill="white"/>
</clipPath>
</defs>
</svg>
